<?xml version="1.0" standalone="no"?>
<!DOCTYPE svg PUBLIC "-//W3C//DTD SVG 20010904//EN"
 "http://www.w3.org/TR/2001/REC-SVG-20010904/DTD/svg10.dtd">
<svg version="1.0" xmlns="http://www.w3.org/2000/svg"
 width="1063.000000pt" height="1063.000000pt" viewBox="0 0 1063.000000 1063.000000"
 preserveAspectRatio="xMidYMid meet">
<metadata>
Created by potrace 1.14, written by Peter Selinger 2001-2017
</metadata>
<g transform="translate(0.000000,1063.000000) scale(0.100000,-0.100000)"
fill="#000000" stroke="none">
<path d="M5310 10621 c0 -7 -51 -35 -58 -31 -2 0 -17 -10 -33 -25 -17 -14 -35
-23 -40 -19 -5 3 -9 1 -9 -4 0 -8 -75 -48 -75 -41 0 2 -11 -6 -25 -18 -13 -13
-28 -23 -33 -23 -5 0 -22 -9 -38 -21 -16 -11 -29 -17 -29 -12 0 4 -5 0 -11 -9
-5 -10 -16 -18 -23 -18 -7 0 -25 -9 -40 -21 -14 -11 -26 -17 -26 -12 0 4 -4 3
-8 -3 -6 -10 -69 -47 -82 -49 -6 -1 -53 -30 -92 -56 -15 -11 -30 -19 -33 -19
-3 0 -23 -11 -45 -25 -22 -14 -40 -23 -40 -20 0 3 -6 1 -12 -5 -32 -26 -87
-58 -92 -52 -3 3 -6 0 -6 -6 0 -7 -5 -12 -10 -12 -6 0 -29 -12 -53 -27 -23
-15 -60 -36 -82 -48 -64 -34 -139 -77 -152 -88 -7 -5 -13 -7 -13 -3 0 3 -9 -3
-20 -14 -11 -11 -29 -20 -40 -20 -11 0 -20 -4 -20 -8 0 -9 -37 -29 -54 -30 -5
0 -13 -7 -18 -16 -5 -9 -15 -16 -22 -16 -8 0 -19 -7 -26 -15 -7 -8 -16 -13
-20 -10 -5 3 -10 1 -12 -4 -1 -5 -10 -11 -18 -13 -8 -2 -19 -6 -25 -11 -42
-31 -84 -54 -89 -49 -3 3 -6 1 -6 -5 0 -6 -8 -13 -17 -17 -10 -3 -25 -10 -33
-15 -56 -37 -154 -91 -166 -91 -8 0 -14 -4 -14 -8 0 -5 -15 -16 -32 -25 -18
-9 -60 -33 -93 -52 -33 -20 -68 -39 -77 -42 -10 -3 -18 -9 -18 -14 0 -5 -5 -9
-11 -9 -6 0 -38 -16 -72 -36 -34 -20 -82 -48 -107 -62 -25 -13 -51 -29 -57
-35 -7 -5 -13 -7 -13 -3 0 3 -9 -3 -20 -14 -11 -11 -25 -20 -31 -20 -6 0 -23
-9 -39 -20 -15 -11 -30 -17 -34 -13 -3 3 -6 1 -6 -6 0 -6 -11 -16 -25 -21 -13
-5 -42 -20 -63 -34 -22 -14 -43 -22 -46 -19 -3 4 -6 1 -6 -6 0 -6 -11 -16 -25
-21 -13 -5 -42 -21 -65 -35 -22 -14 -40 -22 -40 -18 0 5 -5 0 -11 -9 -5 -10
-14 -18 -20 -18 -5 0 -27 -11 -48 -24 -21 -14 -41 -23 -43 -20 -3 2 -13 -5
-23 -16 -10 -11 -24 -20 -30 -20 -7 0 -18 -7 -25 -15 -7 -9 -15 -13 -18 -11
-2 3 -23 -7 -46 -23 -22 -15 -48 -31 -56 -34 -8 -4 -33 -18 -55 -30 -22 -13
-62 -36 -90 -52 -27 -15 -56 -32 -62 -38 -7 -5 -13 -6 -13 -3 0 4 -9 -2 -20
-12 -11 -10 -40 -28 -65 -41 -24 -12 -47 -26 -50 -32 -4 -5 -11 -7 -16 -4 -5
4 -9 1 -9 -4 0 -6 -5 -11 -11 -11 -6 0 -24 -9 -40 -21 -16 -11 -29 -17 -29
-13 0 4 -11 -3 -25 -16 -14 -13 -25 -19 -25 -14 0 5 -4 5 -8 -1 -8 -11 -16
-16 -129 -81 -45 -26 -83 -45 -85 -43 -2 2 -14 -6 -28 -18 -13 -13 -28 -23
-33 -23 -5 0 -22 -9 -38 -21 -16 -11 -29 -17 -29 -12 0 4 -4 3 -8 -4 -6 -10
-139 -89 -207 -123 -16 -8 -32 -17 -35 -20 -3 -3 -17 -12 -32 -20 -15 -8 -103
-59 -197 -113 -93 -54 -171 -97 -173 -95 -2 1 -10 -3 -18 -10 -8 -8 -35 -26
-60 -41 l-45 -28 -4 -1279 c-3 -1077 -4 -2609 -2 -3760 l1 -272 33 -16 c17 -9
50 -27 72 -41 22 -13 56 -33 75 -43 19 -10 60 -34 90 -52 52 -31 68 -40 165
-97 22 -12 47 -26 55 -30 8 -3 17 -9 20 -12 5 -6 44 -28 135 -77 28 -15 52
-29 55 -33 3 -4 16 -12 30 -18 14 -7 43 -24 65 -38 22 -14 54 -32 70 -41 35
-18 38 -20 167 -97 52 -31 98 -57 101 -57 7 0 75 -43 95 -60 6 -6 12 -8 12 -5
0 3 18 -6 41 -20 22 -15 56 -35 75 -46 112 -63 209 -119 224 -129 8 -6 26 -16
40 -23 14 -7 44 -25 68 -40 24 -15 53 -32 65 -38 12 -5 40 -21 62 -34 22 -14
47 -28 55 -32 8 -4 43 -24 78 -45 34 -21 67 -38 72 -38 6 0 10 -4 10 -9 0 -5
8 -11 18 -14 9 -4 37 -18 62 -33 25 -15 60 -35 77 -45 18 -11 50 -29 70 -40
21 -12 52 -30 68 -40 17 -10 45 -26 63 -36 17 -9 32 -20 32 -25 0 -4 8 -8 18
-8 9 0 28 -9 42 -20 14 -11 29 -20 34 -20 5 0 17 -6 25 -14 9 -7 43 -28 76
-46 33 -17 65 -35 70 -40 6 -4 27 -17 47 -29 71 -39 113 -64 143 -82 17 -11
37 -22 45 -26 8 -4 53 -30 100 -58 47 -28 92 -55 100 -59 8 -4 24 -12 35 -19
11 -7 52 -30 90 -52 39 -21 76 -45 83 -52 7 -7 18 -13 23 -13 7 0 107 -56 159
-90 8 -6 26 -15 40 -21 14 -6 32 -16 40 -23 14 -12 66 -43 145 -86 17 -9 53
-30 80 -48 28 -17 56 -32 63 -32 6 0 12 -4 12 -8 0 -5 16 -14 35 -22 19 -8 35
-17 35 -21 0 -4 12 -12 28 -18 15 -6 45 -22 67 -36 22 -14 47 -28 55 -32 8 -4
43 -24 78 -45 34 -21 65 -38 69 -38 3 0 14 -6 22 -14 9 -7 37 -25 62 -39 77
-42 94 -52 99 -58 3 -3 21 -13 40 -22 19 -10 53 -28 75 -41 l40 -24 60 33 c33
18 87 49 120 69 33 20 65 36 72 36 6 0 13 4 15 8 4 10 322 192 336 192 6 0 12
4 14 8 3 8 41 31 143 88 28 15 64 35 80 45 86 51 175 99 184 99 5 0 11 4 13 8
2 5 50 35 108 67 58 33 107 63 108 67 2 4 12 8 23 8 10 0 19 3 19 8 0 4 30 23
67 42 38 19 72 39 78 43 12 10 182 109 250 146 28 15 142 81 255 146 379 219
408 235 418 235 6 0 12 4 14 9 3 9 494 291 508 291 4 0 10 3 12 8 2 4 46 32
98 61 290 166 617 353 630 361 29 17 145 85 172 100 37 20 277 158 418 240
177 103 204 118 214 118 5 0 12 4 15 9 3 5 36 26 73 46 37 21 70 42 73 47 3 5
8 38 11 72 7 81 11 4591 4 4967 l-5 284 -1145 664 c-1027 596 -2918 1693
-3302 1916 -82 47 -148 82 -148 78z m80 -404 c8 -4 22 -11 30 -17 16 -11 160
-94 270 -158 14 -7 43 -25 65 -38 22 -13 51 -29 65 -36 14 -7 36 -20 50 -29
14 -9 43 -27 65 -40 22 -12 58 -33 80 -46 22 -12 47 -26 55 -30 8 -4 50 -29
93 -55 43 -26 83 -48 88 -48 5 0 9 -5 9 -12 0 -6 3 -8 7 -5 3 4 12 2 20 -4 19
-16 75 -48 96 -55 9 -4 17 -10 17 -15 0 -5 6 -9 13 -9 8 0 32 -13 53 -28 21
-16 43 -29 47 -29 5 0 43 -21 85 -46 43 -25 430 -249 862 -499 432 -250 1087
-629 1457 -844 l672 -389 3 -170 c4 -225 4 -4458 0 -4645 l-3 -145 -967 -555
c-532 -304 -1003 -575 -1047 -601 -44 -26 -550 -317 -1125 -647 -575 -329
-1068 -613 -1097 -630 -29 -17 -55 -27 -58 -23 -2 5 -19 16 -37 25 -18 9 -51
27 -73 41 -22 14 -47 28 -55 32 -8 4 -58 32 -110 63 -52 31 -102 59 -110 63
-8 4 -33 18 -55 32 -22 14 -49 30 -60 35 -11 6 -38 21 -60 35 -22 14 -49 30
-60 36 -11 5 -36 20 -57 32 -20 12 -65 38 -100 58 -34 20 -130 76 -213 124
-190 110 -212 123 -255 147 -19 11 -48 28 -65 39 -16 10 -41 24 -55 31 -14 7
-47 27 -75 44 -27 17 -57 34 -65 38 -8 4 -31 17 -52 29 -43 26 -139 82 -188
110 -19 11 -48 28 -65 38 -16 11 -41 25 -55 32 -14 7 -44 25 -67 40 -24 15
-45 27 -47 27 -2 0 -40 21 -83 46 -80 48 -90 54 -203 119 -36 21 -78 45 -95
55 -43 25 -832 483 -1412 820 l-492 285 -3 275 c-4 409 1 4136 7 4424 3 185 8
253 17 262 12 12 37 26 133 79 44 24 103 58 150 86 17 10 46 26 65 37 19 11
53 30 75 42 22 13 60 34 85 48 25 14 56 32 70 41 14 10 36 22 50 29 14 7 48
26 75 42 28 16 59 34 70 40 11 6 34 19 50 30 17 11 46 28 65 38 19 10 53 29
75 42 42 24 139 80 203 116 20 12 66 38 102 59 84 48 115 66 170 97 25 14 63
35 85 48 22 13 65 36 95 53 30 16 60 33 65 37 6 4 27 17 48 29 20 12 54 31 75
42 20 12 57 33 82 47 25 13 50 28 55 32 6 4 30 19 55 32 51 28 229 132 275
159 17 10 44 25 60 34 17 8 37 19 45 24 8 6 41 25 73 43 32 18 71 41 85 50 15
10 41 24 57 33 17 8 48 25 70 38 22 13 63 36 90 52 28 15 55 31 60 35 6 4 33
20 60 36 28 15 64 36 80 46 17 10 37 21 45 25 8 4 42 23 75 42 33 20 74 44 90
53 17 10 47 26 68 35 20 10 37 21 37 25 0 5 9 8 19 8 11 0 21 3 23 8 3 7 163
102 173 102 3 0 18 8 33 19 40 27 86 55 92 56 3 0 16 8 30 17 14 9 48 29 77
45 28 15 108 61 178 101 69 39 128 72 131 72 3 0 10 5 17 11 7 6 62 39 122 73
108 62 110 63 135 46 14 -9 32 -20 40 -23z"/>
<path d="M5019 9172 c-162 -93 -809 -465 -1439 -827 -630 -362 -1278 -734
-1440 -828 -162 -93 -301 -175 -309 -182 -12 -12 -14 -296 -17 -1862 -2 -1016
-4 -1870 -5 -1898 -1 -27 -1 -100 0 -161 l1 -112 263 -153 c144 -83 852 -494
1572 -912 721 -417 1378 -798 1460 -847 83 -48 160 -92 172 -99 21 -11 44 -6
83 18 23 15 180 106 225 131 22 13 60 34 85 48 25 14 57 33 72 43 14 11 29 19
32 19 4 0 75 40 151 87 11 7 30 17 43 22 12 6 47 27 77 46 31 19 58 35 61 35
3 0 44 23 92 51 94 56 132 78 202 117 25 14 57 33 72 43 14 11 29 19 33 19 4
0 42 21 84 46 42 26 90 54 106 64 17 9 53 29 80 45 28 16 61 35 75 42 14 8 42
24 62 36 21 12 61 35 90 51 29 15 60 34 68 40 8 7 26 18 40 24 14 7 34 18 45
25 11 7 71 41 134 77 63 36 130 75 150 87 20 12 54 31 76 42 22 12 58 32 80
45 22 14 63 37 90 51 28 15 57 33 65 39 8 7 40 25 70 40 30 16 62 35 71 42 8
8 18 14 21 14 4 0 40 20 82 45 42 24 106 61 143 81 38 21 86 49 108 63 22 14
51 31 65 38 14 7 43 24 65 38 22 13 47 28 55 32 8 4 47 26 85 48 39 23 90 53
115 67 25 14 71 40 103 57 l57 33 1 406 c0 224 2 502 4 617 5 268 9 2070 7
2613 l-2 412 -22 11 c-13 5 -41 21 -63 34 -22 14 -49 29 -60 35 -11 5 -38 21
-60 35 -22 14 -47 28 -55 32 -16 7 -134 76 -160 93 -8 6 -26 16 -40 23 -14 7
-43 24 -65 37 -41 26 -53 33 -152 88 -32 18 -76 44 -98 58 -22 13 -51 30 -65
37 -14 7 -43 24 -65 38 -22 14 -52 32 -67 40 -15 8 -101 56 -190 108 -90 52
-172 99 -183 105 -11 6 -27 16 -35 22 -8 6 -35 22 -60 35 -25 13 -52 29 -60
35 -8 7 -37 24 -65 39 -48 25 -78 42 -147 85 -18 11 -46 27 -63 36 -16 8 -46
25 -67 37 -41 25 -157 91 -208 120 -19 11 -47 28 -61 38 -15 10 -37 23 -50 29
-13 6 -37 19 -54 30 -16 11 -43 27 -60 35 -34 17 -58 32 -96 56 -14 9 -49 30
-77 45 -29 16 -68 38 -86 49 -18 11 -71 41 -117 68 -46 26 -102 59 -124 72
-22 14 -47 28 -55 32 -8 4 -42 23 -75 43 -33 20 -67 39 -75 43 -8 4 -32 17
-52 30 -21 12 -74 43 -118 70 -44 26 -83 47 -86 47 -4 0 -15 6 -23 14 -9 8
-38 26 -66 40 -56 30 -78 43 -117 69 -14 9 -30 17 -35 17 -6 0 -142 -76 -304
-168z"/>
</g>
</svg>
